<svg xmlns="http://www.w3.org/2000/svg" xmlns:xlink="http://www.w3.org/1999/xlink" viewBox="0 0 140 140">
  	<style type="text/css">
		.text_color{fill:#222;}
		.border_ring{stroke:#E6E6E6;stroke-width:0.5;fill:none;}
		.aircraft_symbol{fill:none;stroke:#F7CE31;stroke-width:2;}
		.arrow1_line{fill:none;stroke:#F7CE31;stroke-width:2;}
		.arrow1_head{fill:#F7CE31;}
		.red_markers{fill:none;stroke:#FF0000;}
		.dial_markers{fill:none;stroke:#222;}
		.north_marker{fill:#FF0000;}
        .arrows{stroke-width:1;stroke-dasharray:0;stroke-dashoffset: 0;stroke-linecap: round;}
        .windArrow{fill:teal;stroke:teal;}
        .crossWindArrow{fill:none;stroke:#000000;display: none;}
        .headWindArrow{fill:none;stroke:#000000;display:none;}
        .meanWindArrow{fill:indigo;stroke:indigo;}
	</style>
    <defs>
        <marker id="IDI_13" refX="0" refY="0" orient="auto" markerUnits="strokeWidth" style="overflow:visible;" markerWidth="6.343432426452637" markerHeight="6.343432903289795" viewBox="-5.400596618652344 -3.1717164516448975 6.343432426452637 6.343432903289795" class="">
            <path class="meanWindArrow" d="M 28.6 10.6 L 28.4 10.7 L 25.7 13.4 C 25.7 13.5 25.6 13.5 25.7 13.5 C 25.7 13.6 25.7 13.6 25.8 13.6 L 27.9 13.6 C 27.9 13.6 28 13.6 28.1 13.5 C 28.2 13.5 28.3 13.4 28.3 13.4 L 30.9 10.8 C 31 10.7 31 10.7 31 10.6 C 31 10.5 31 10.5 30.9 10.4 L 28.3 7.8 C 28.2 7.7 28.2 7.7 28.1 7.7 C 28.1 7.6 28 7.6 27.9 7.6 L 25.9 7.6 C 25.8 7.6 25.7 7.6 25.7 7.6 C 25.7 7.7 25.7 7.7 25.8 7.8 L 28.3 10.4 L 28.6 10.6 Z" stroke-width="1.0" transform="matrix(1,0,0,1,-30.6,-10.6)" stroke-opacity="1" fill-opacity="1" stroke-linejoin="round" data-mantain-aspect-ratio="true"></path>
        </marker>
        <marker id="IDI_14" refX="0" refY="0" orient="auto" markerUnits="strokeWidth" style="overflow:visible;" markerWidth="4.9804229736328125" markerHeight="6.542130947113037" viewBox="-4.051455497741699 -3.2710654735565186 4.9804229736328125 6.542130947113037">
            <path class="windArrow" d="M 69.4 21.1 L 73.8 24.2 L 69.4 27.1 L 69.4 21.1 Z" stroke-width="1.0" stroke-linejoin="round" transform="matrix(1,0,0,1,-73.1,-24.1)" data-mantain-aspect-ratio="true"></path>
        </marker>
        <marker id="IDI_51" refX="0" refY="0" orient="auto-start-reverse" markerUnits="strokeWidth" style="overflow:visible;" markerWidth="4.50991153717041" markerHeight="6.052972793579102" viewBox="-3.5999324321746826 -3.0162153244018555 4.50991153717041 6.052972793579102">
            <path class="crossWindArrow" d="M 11.9 8.8 L 14.9 11.2 L 11.9 13.7" stroke-width="1.2" transform="matrix(1,0,0,1,-15,-11.2)" stroke-opacity="1" fill-opacity="1" data-mantain-aspect-ratio="true"></path>
        </marker>
        <marker id="IDI_121587" refX="0" refY="0" orient="auto-start-reverse" markerUnits="strokeWidth" style="overflow:visible;" markerWidth="4.712560176849365" markerHeight="7.689675807952881" viewBox="-4.0130615234375 -3.8448379039764404 4.712560176849365 7.689675807952881">
            <path class="headWindArrow" d="M 10.13524341583252 10.666379928588867 L 12.694269180297852 13.7008638381958 L 10.135244369506836 16.666379928588867 " stroke-width="1.3" transform="matrix(1 0 0 1 -13.0715 -13.6664)" stroke-opacity="1" fill-opacity="1" stroke-linejoin="miter" stroke-linecap="round" data-mantain-aspect-ratio="true"></path>
        </marker>
    </defs>
    <g>
        <g transform="matrix(1,0,0,1,0,0)">
            <circle class="border_ring" cx="70" cy="70" r="65"/>
            
            <g id="aircraftSymbol" transform="matrix(1,0,0,1,70,70) rotate(0,0,0) scale(1.5)">
                <line class="aircraft_symbol" x1="139.2" y1="56.4545" x2="139.2" y2="76.4545" transform="matrix(1 7.52694e-17 -7.52694e-17 1 -139.2 -66.4545)"></line>
                <line class="aircraft_symbol" x1="129.2" y1="62.4545" x2="149.2" y2="62.4545" transform="matrix(1 7.52694e-17 -7.52694e-17 1 -139.2 -66.4545)"></line>
                <line class="aircraft_symbol" x1="136.2" y1="73.3636" x2="142.2" y2="73.3636" transform="matrix(1 7.52694e-17 -7.52694e-17 1 -139.2 -66.4545)"></line>
            </g>
            
            <g id="dial_markers" transform="matrix(1,0,0,1,70,70)">
                <line class="red_markers" x1="142.477" y1="20.4708" x2="142.477" y2="26.6121" transform="matrix(1 0 0 1 -142.426 -70.4708)" ></line>
                <line class="dial_markers" x1="138.383" y1="23.7462" x2="138.588" y2="26.8168" transform="matrix(1 0 0 1 -142.426 -70.4708)" ></line>
                <line class="dial_markers" x1="130.297" y1="25.1791" x2="131.116" y2="28.1474" transform="matrix(1 0 0 1 -142.426 -70.4708)" ></line>
                <line class="dial_markers" x1="122.62" y1="27.9427" x2="123.951" y2="30.7062" transform="matrix(1 0 0 1 -142.426 -70.4708)" ></line>
                <line class="dial_markers" x1="115.558" y1="32.0368" x2="117.298" y2="34.4933" transform="matrix(1 0 0 1 -142.426 -70.4708)" ></line>
                <line class="dial_markers" x1="109.314" y1="37.2569" x2="111.464" y2="39.4063" transform="matrix(1 0 0 1 -142.426 -70.4708)" ></line>
                <line class="dial_markers" x1="103.992" y1="43.5005" x2="106.551" y2="45.3429" transform="matrix(1 0 0 1 -142.426 -70.4708)" ></line>
                <line class="dial_markers" x1="99.8976" y1="50.6653" x2="102.661" y2="51.8936" transform="matrix(1 0 0 1 -142.426 -70.4708)" ></line>
                <line class="dial_markers" x1="97.1341" y1="58.3419" x2="100.102" y2="59.0583" transform="matrix(1 0 0 1 -142.426 -70.4708)" ></line>
                <line class="dial_markers" x1="95.7011" y1="66.3255" x2="98.7718" y2="66.6325" transform="matrix(1 0 0 1 -142.426 -70.4708)" ></line>
                <line class="dial_markers" x1="95.7011" y1="74.5138" x2="98.7718" y2="74.3091" transform="matrix(1 0 0 1 -142.426 -70.4708)" ></line>
                <line class="dial_markers" x1="97.1341" y1="82.5998" x2="100.102" y2="81.781" transform="matrix(1 0 0 1 -142.426 -70.4708)" ></line>
                <line class="dial_markers" x1="99.8976" y1="90.2764" x2="102.661" y2="88.9458" transform="matrix(1 0 0 1 -142.426 -70.4708)" ></line>
                <line class="dial_markers" x1="103.992" y1="97.3388" x2="106.551" y2="95.5988" transform="matrix(1 0 0 1 -142.426 -70.4708)" ></line>
                <line class="dial_markers" x1="109.314" y1="103.582" x2="111.464" y2="101.433" transform="matrix(1 0 0 1 -142.426 -70.4708)" ></line>
                <line class="dial_markers" x1="115.558" y1="108.905" x2="117.298" y2="106.346" transform="matrix(1 0 0 1 -142.426 -70.4708)" ></line>
                <line class="dial_markers" x1="122.62" y1="112.999" x2="123.951" y2="110.235" transform="matrix(1 0 0 1 -142.426 -70.4708)" ></line>
                <line class="dial_markers" x1="130.297" y1="115.763" x2="131.116" y2="112.794" transform="matrix(1 0 0 1 -142.426 -70.4708)" ></line>
                <line class="dial_markers" x1="138.383" y1="117.195" x2="138.588" y2="114.125" transform="matrix(1 0 0 1 -142.426 -70.4708)" ></line>
                <line class="dial_markers" x1="146.571" y1="117.195" x2="146.264" y2="114.125" transform="matrix(1 0 0 1 -142.426 -70.4708)" ></line>
                <line class="dial_markers" x1="154.555" y1="115.763" x2="153.838" y2="112.794" transform="matrix(1 0 0 1 -142.426 -70.4708)" ></line>
                <line class="dial_markers" x1="162.231" y1="112.999" x2="161.003" y2="110.235" transform="matrix(1 0 0 1 -142.426 -70.4708)" ></line>
                <line class="dial_markers" x1="169.396" y1="108.905" x2="167.554" y2="106.346" transform="matrix(1 0 0 1 -142.426 -70.4708)" ></line>
                <line class="dial_markers" x1="175.64" y1="103.582" x2="173.49" y2="101.433" transform="matrix(1 0 0 1 -142.426 -70.4708)" ></line>
                <line class="dial_markers" x1="180.86" y1="97.3388" x2="178.403" y2="95.5988" tansform="matrix(1 0 0 1 -142.426 -70.4708)" ></line>
                <line class="dial_markers" x1="184.954" y1="90.2764" x2="182.19" y2="88.9458" transform="matrix(1 0 0 1 -142.426 -70.4708)" ></line>
                <line class="dial_markers" x1="187.717" y1="82.5998" x2="184.749" y2="81.781" transform="matrix(1 0 0 1 -142.426 -70.4708)" ></line>
                <line class="dial_markers" x1="189.15" y1="74.5138" x2="186.08" y2="74.3091" transform="matrix(1 0 0 1 -142.426 -70.4708)" ></line>
                <line class="dial_markers" x1="189.15" y1="66.3255" x2="186.08" y2="66.6325" transform="matrix(1 0 0 1 -142.426 -70.4708)" ></line>
                <line class="dial_markers" x1="187.717" y1="58.3419" x2="184.749" y2="59.0583" transform="matrix(1 0 0 1 -142.426 -70.4708)" ></line>
                <line class="dial_markers" x1="184.954" y1="50.6653" x2="182.19" y2="51.8936" transform="matrix(1 0 0 1 -142.426 -70.4708)" ></line>
                <line class="dial_markers" x1="180.86" y1="43.5005" x2="178.403" y2="45.3429" transform="matrix(1 0 0 1 -142.426 -70.4708)" ></line>
                <line class="dial_markers" x1="175.64" y1="37.2569" x2="173.49" y2="39.4063" transform="matrix(1 0 0 1 -142.426 -70.4708)" ></line>
                <line class="dial_markers" x1="169.396" y1="32.0368" x2="167.554" y2="34.4933" transform="matrix(1 0 0 1 -142.426 -70.4708)" ></line>
                <line class="dial_markers" x1="162.231" y1="27.9427" x2="161.003" y2="30.7062" transform="matrix(1 0 0 1 -142.426 -70.4708)" ></line>
                <line class="dial_markers" x1="154.555" y1="25.1791" x2="153.838" y2="28.1474" transform="matrix(1 0 0 1 -142.426 -70.4708)" ></line>
                <line class="dial_markers" x1="146.571" y1="23.7462" x2="146.264" y2="26.8168" transform="matrix(1 0 0 1 -142.426 -70.4708)" ></line>
                <line class="dial_markers" x1="133.777" y1="21.1873" x2="134.8" y2="27.3286" transform="matrix(1 0 0 1 -142.426 -70.4708)" ></line>
                <line class="dial_markers" x1="125.384" y1="23.4391" x2="127.431" y2="29.2733" transform="matrix(1 0 0 1 -142.426 -70.4708)" ></line>
                <line class="dial_markers" x1="117.4" y1="27.1238" x2="120.471" y2="32.4463" transform="matrix(1 0 0 1 -142.426 -70.4708)" ></line>
                <line class="dial_markers" x1="110.338" y1="32.1392" x2="114.227" y2="36.8475" transform="matrix(1 0 0 1 -142.426 -70.4708)" ></line>
                <line class="dial_markers" x1="104.197" y1="38.2805" x2="108.905" y2="42.2723" transform="matrix(1 0 0 1 -142.426 -70.4708)" ></line>
                <line class="dial_markers" x1="99.1812" y1="45.4452" x2="104.504" y2="48.5159" transform="matrix(1 0 0 1 -142.426 -70.4708)" ></line>
                <line class="dial_markers" x1="95.4964" y1="53.3265" x2="101.228" y2="55.4759" transform="matrix(1 0 0 1 -142.426 -70.4708)" ></line>
                <line class="dial_markers" x1="93.2446" y1="61.8219" x2="99.2835" y2="62.8454" transform="matrix(1 0 0 1 -142.426 -70.4708)" ></line>
                <line class="dial_markers" x1="92.4258" y1="70.4197" x2="98.567" y2="70.4197" transform="matrix(1 0 0 1 -142.426 -70.4708)" ></line>
                <line class="dial_markers" x1="93.2446" y1="79.1198" x2="99.2835" y2="78.0962" transform="matrix(1 0 0 1 -142.426 -70.4708)" ></line>
                <line class="dial_markers" x1="95.4964" y1="87.5128" x2="101.228" y2="85.4657" transform="matrix(1 0 0 1 -142.426 -70.4708)" ></line>
                <line class="dial_markers" x1="99.1812" y1="95.4964" x2="104.504" y2="92.4258" transform="matrix(1 0 0 1 -142.426 -70.4708)" ></line>
                <line class="dial_markers" x1="104.197" y1="102.559" x2="108.905" y2="98.6694" transform="matrix(1 0 0 1 -142.426 -70.4708)" ></line>
                <line class="dial_markers" x1="110.338" y1="108.7" x2="114.227" y2="103.992" transform="matrix(1 0 0 1 -142.426 -70.4708)" ></line>
                <line class="dial_markers" x1="117.503" y1="113.715" x2="120.573" y2="108.393" transform="matrix(1 0 0 1 -142.426 -70.4708)" ></line>
                <line class="dial_markers" x1="125.384" y1="117.4" x2="127.431" y2="111.668" transform="matrix(1 0 0 1 -142.426 -70.4708)" ></line>
                <line class="dial_markers" x1="133.777" y1="119.652" x2="134.8" y2="113.613" transform="matrix(1 0 0 1 -142.426 -70.4708)" ></line>
                <line class="dial_markers" x1="142.477" y1="120.471" x2="142.477" y2="114.33" transform="matrix(1 0 0 1 -142.426 -70.4708)" ></line>
                <line class="dial_markers" x1="151.075" y1="119.652" x2="150.051" y2="113.613" transform="matrix(1 0 0 1 -142.426 -70.4708)" ></line>
                <line class="dial_markers" x1="159.57" y1="117.4" x2="157.421" y2="111.668" transform="matrix(1 0 0 1 -142.426 -70.4708)" ></line>
                <line class="dial_markers" x1="167.451" y1="113.715" x2="164.381" y2="108.393" transform="matrix(1 0 0 1 -142.426 -70.4708)" ></line>
                <line class="dial_markers" x1="174.616" y1="108.7" x2="170.624" y2="103.992" transform="matrix(1 0 0 1 -142.426 -70.4708)" ></line>
                <line class="dial_markers" x1="180.757" y1="102.559" x2="176.049" y2="98.6694" transform="matrix(1 0 0 1 -142.426 -70.4708)" ></line>
                <line class="dial_markers" x1="185.773" y1="95.3941" x2="180.45" y2="92.3234" transform="matrix(1 0 0 1 -142.426 -70.4708)" ></line>
                <line class="dial_markers" x1="189.458" y1="87.5128" x2="183.623" y2="85.4657" transform="matrix(1 0 0 1 -142.426 -70.4708)" ></line>
                <line class="dial_markers" x1="191.709" y1="79.1198" x2="185.568" y2="78.0962" transform="matrix(1 0 0 1 -142.426 -70.4708)" ></line>
                <line class="dial_markers" x1="192.426" y1="70.4197" x2="186.285" y2="70.4197" transform="matrix(1 0 0 1 -142.426 -70.4708)" ></line>
                <line class="dial_markers" x1="191.709" y1="61.8219" x2="185.568" y2="62.8454" transform="matrix(1 0 0 1 -142.426 -70.4708)" ></line>
                <line class="dial_markers" x1="189.458" y1="53.3265" x2="183.623" y2="55.4759" transform="matrix(1 0 0 1 -142.426 -70.4708)" ></line>
                <line class="dial_markers" x1="185.773" y1="45.4452" x2="180.45" y2="48.5159" transform="matrix(1 0 0 1 -142.426 -70.4708)" ></line>
                <line class="dial_markers" x1="180.757" y1="38.2805" x2="176.049" y2="42.2723" transform="matrix(1 0 0 1 -142.426 -70.4708)" ></line>
                <line class="dial_markers" x1="174.616" y1="32.1392" x2="170.624" y2="36.8475" transform="matrix(1 0 0 1 -142.426 -70.4708)" ></line>
                <line class="dial_markers" x1="167.451" y1="27.1238" x2="164.381" y2="32.4463" transform="matrix(1 0 0 1 -142.426 -70.4708)" ></line>
                <line class="dial_markers" x1="159.57" y1="23.4391" x2="157.421" y2="29.2733" transform="matrix(1 0 0 1 -142.426 -70.4708)" ></line>
                <line class="dial_markers" x1="151.075" y1="21.1873" x2="150.051" y2="27.3286" transform="matrix(1 0 0 1 -142.426 -70.4708)" ></line>
            </g>

            <g id="red_markers" transform="matrix(1,0,0,1,70,79.5)">
                <line class="red_markers" x1="115.556" y1="35.5973" x2="112.371" y2="32.2992" transform="matrix(1 0 0 1 -158.263 -87.7992)" ></line>
                <line class="red_markers" x1="97.8127" y1="78.2459" x2="93.2633" y2="78.2459" transform="matrix(1 0 0 1 -158.263 -87.7992)" ></line>
                <line class="red_markers" x1="115.556" y1="121.008" x2="112.371" y2="124.193" transform="matrix(1 0 0 1 -158.263 -87.7992)" ></line>
                <line class="red_markers" x1="158.32" y1="138.75" x2="158.32" y2="143.299" transform="matrix(1 0 0 1 -158.263 -87.7992)" ></line>
                <line class="red_markers" x1="200.971" y1="121.008" x2="204.269" y2="124.193" transform="matrix(1 0 0 1 -158.263 -87.7992)" ></line>
                <line class="red_markers" x1="218.714" y1="78.2459" x2="223.263" y2="78.2459" transform="matrix(1 0 0 1 -158.263 -87.7992)" ></line>
                <line class="red_markers" x1="200.971" y1="35.5973" x2="204.269" y2="32.2992" transform="matrix(1 0 0 1 -158.263 -87.7992)" ></line>
            </g>
            <path class="north_marker" d="M 2.5 -2.5 L 0 2.5 L -2.5 -2.5 L 2.5 -2.5 Z" stroke-linecap="butt" stroke-linejoin="miter" transform="matrix(1,0,0,1,70,7.5)" stroke-width="1.1824811300158056"></path>
            
            <g id="txt_copy" transform="matrix(1,0,0,1,70,70)">
                <path class="text_color" d="M 148.6 23.5 L 148.6 14.8 L 150.1 14.8 L 151.4 18.2 C 151.7 18.9 152 20.1 152.4 20.8 L 152.4 20.8 C 152.4 19.9 152.1 18.3 152.1 16.8 L 152.1 14.9 L 153.7 14.9 L 153.7 23.7 L 152.1 23.7 L 150.8 20.3 C 150.5 19.5 150.2 18.4 150 17.7 L 150 17.7 C 150 18.6 150.1 20 150.1 21.7 L 150.1 23.7 L 148.6 23.7 L 148.6 23.5 Z"  transform="matrix(1,0,0,1,-151.1,-74.8)" stroke-width="1.0896071821876354"></path>
                <path class="text_color" d="M 99.9 77.5 L 91.1 79 L 91.1 77.3 L 94.6 76.8 C 95.6 76.7 96.5 76.6 97.6 76.5 L 97.6 76.5 C 96.5 76.4 95.6 76.2 94.6 75.9 L 91.1 75.3 L 91.1 73.9 L 94.6 73.3 C 95.6 73.2 96.5 73 97.7 72.9 L 97.7 72.9 C 96.5 72.8 95.7 72.7 94.6 72.6 L 91.1 72.2 L 91.1 70.5 L 99.9 72 L 99.9 73.8 L 97 74.3 C 96.2 74.4 95.1 74.6 94 74.8 L 94 74.8 C 95.1 74.9 96.1 75.1 97 75.2 L 99.8 75.7 L 99.8 77.5 L 99.9 77.5 Z"  transform="matrix(1,0,0,1,-151.1,-74.8)" stroke-width="1.0896071821876354"></path>
                <path class="text_color" d="M 153.1 127.6 C 152.8 127.4 152.1 127.3 151.7 127.3 C 151 127.3 150.5 127.7 150.5 128.2 C 150.5 128.9 151 129.2 151.6 129.7 C 152.8 130.4 153.2 131.3 153.2 132.2 C 153.2 133.6 152.3 134.8 150.5 134.8 C 150 134.8 149.4 134.6 149.1 134.4 L 149.4 132.9 C 149.6 133 150.1 133.2 150.5 133.2 C 151.3 133.2 151.6 132.8 151.6 132.4 C 151.6 131.8 151.4 131.6 150.4 131 C 149.2 130.3 148.8 129.3 148.8 128.5 C 148.8 126.8 150 125.9 151.7 125.9 C 152.4 125.9 153.1 126.1 153.3 126.2 L 153.1 127.6 Z"  transform="matrix(1,0,0,1,-151.1,-74.8)" stroke-width="1.0896071821876354"></path>
                <path class="text_color" d="M 206.2 76.6 L 206.2 74.6 L 203.8 74.6 L 203.8 76.9 L 202.3 76.9 L 202.3 73 L 211.1 73 L 211.1 76.8 L 209.6 76.8 L 209.6 74.8 L 207.5 74.8 L 207.5 76.7 L 206.2 76.7 L 206.2 76.6 Z"  transform="matrix(1,0,0,1,-151.1,-74.8)" stroke-width="1.0896071821876354"></path>
            </g>

            <g id="outlines_1_" transform="matrix(1,0,0,1,70,70)">
                <path class="text_color" d="M 120.9 30.5 L 121.7 29.9 C 122 30.4 122.5 30.6 122.8 30.7 C 123.1 30.8 123.5 30.7 123.8 30.5 C 124.2 30.3 124.5 29.9 124.6 29.5 C 124.7 29.1 124.6 28.6 124.4 28.3 C 124.1 28 123.8 27.6 123.5 27.5 C 123 27.4 122.7 27.5 122.3 27.7 C 122.1 27.9 121.9 28 121.7 28.2 L 121.4 27.4 C 121.5 27.4 121.5 27.4 121.5 27.3 C 121.8 27.1 122.1 26.9 122.3 26.4 C 122.5 26.1 122.4 25.7 122.1 25.3 C 121.9 25 121.7 24.8 121.4 24.8 C 121 24.7 120.7 24.8 120.4 24.9 C 120.1 25.1 119.8 25.3 119.7 25.7 C 119.6 26 119.6 26.4 119.8 26.9 L 118.9 27.2 C 118.7 26.5 118.7 26 118.9 25.4 C 119.2 24.9 119.5 24.6 120.1 24.2 C 120.4 24 120.8 23.9 121.3 23.9 C 121.7 23.9 122 24 122.4 24.1 C 122.7 24.2 122.9 24.6 123.1 24.9 C 123.4 25.2 123.4 25.6 123.4 25.9 C 123.4 26.2 123.3 26.5 123 26.9 C 123.5 26.8 123.9 26.8 124.4 26.9 C 124.8 27 125.1 27.3 125.4 27.7 C 125.7 28.3 125.8 29 125.6 29.6 C 125.4 30.3 124.9 30.8 124.2 31.1 C 123.7 31.5 123 31.6 122.5 31.5 C 121.8 31.4 121.4 31 120.9 30.5 Z"  transform="matrix(1,0,0,1,-153.2,-75.8)" stroke-width="1.1334816817207454"></path>
                <path class="text_color" d="M 126.3 27.4 L 127.1 26.9 C 127.4 27.3 127.9 27.5 128.2 27.6 C 128.6 27.7 128.9 27.6 129.2 27.4 C 129.7 27.2 129.9 26.9 130 26.4 C 130.1 26 130 25.6 129.8 25.2 C 129.5 24.9 129.2 24.6 128.9 24.5 C 128.4 24.3 128.1 24.5 127.7 24.7 C 127.6 24.8 127.3 24.9 127.1 25.1 L 126.8 24.3 C 126.9 24.3 126.9 24.3 126.9 24.2 C 127.2 24 127.6 23.8 127.7 23.4 C 127.9 23 127.8 22.6 127.6 22.3 C 127.3 21.9 127.1 21.7 126.8 21.7 C 126.5 21.6 126.1 21.7 125.8 21.8 C 125.5 22 125.2 22.3 125.1 22.6 C 125 22.9 125 23.4 125.2 23.8 L 124.4 24.1 C 124.1 23.5 124.1 22.9 124.4 22.4 C 124.6 21.8 124.9 21.5 125.5 21.2 C 125.8 20.9 126.2 20.8 126.7 20.8 C 127.1 20.8 127.4 20.9 127.8 21.1 C 128.1 21.3 128.3 21.5 128.6 21.8 C 128.8 22.2 128.8 22.5 128.8 22.8 C 128.8 23.1 128.7 23.5 128.4 23.8 C 128.9 23.7 129.3 23.7 129.8 23.8 C 130.2 23.9 130.5 24.2 130.8 24.7 C 131.1 25.2 131.2 25.9 131 26.5 C 130.8 27.2 130.3 27.7 129.7 28.1 C 129.1 28.4 128.4 28.5 127.9 28.4 C 127.2 28.3 126.7 28 126.3 27.4 Z"  transform="matrix(1,0,0,1,-153.2,-75.8)" stroke-width="1.1334816817207454"></path>
                <path class="text_color" d="M 102.7 52.8 L 103 51.9 C 103.6 52.1 104 52.1 104.4 52 C 104.7 51.9 105 51.7 105.1 51.3 C 105.4 50.9 105.5 50.6 105.4 50.1 C 105.3 49.7 105 49.4 104.6 49.1 C 104.3 48.9 103.8 48.8 103.4 48.9 C 102.9 49 102.7 49.2 102.5 49.7 C 102.4 49.8 102.3 50 102.3 50.3 L 101.6 49.8 C 101.6 49.8 101.7 49.7 101.7 49.7 C 101.9 49.4 102 48.9 102 48.6 C 102 48.3 101.8 47.9 101.4 47.7 C 101.1 47.5 100.7 47.5 100.4 47.6 C 100.1 47.7 99.8 47.9 99.6 48.3 C 99.4 48.6 99.4 48.9 99.5 49.2 C 99.6 49.6 99.8 49.9 100.2 50.2 L 99.5 51 C 99 50.6 98.7 50.1 98.6 49.6 C 98.5 49 98.6 48.5 99 47.9 C 99.2 47.6 99.4 47.3 99.8 47 C 100.2 46.8 100.5 46.7 100.9 46.7 C 101.3 46.7 101.6 46.8 101.9 46.9 C 102.3 47.2 102.5 47.4 102.6 47.6 C 102.7 47.9 102.8 48.3 102.8 48.6 C 103.2 48.3 103.5 48 103.9 47.9 C 104.4 47.9 104.8 47.9 105.3 48.3 C 105.8 48.6 106.2 49.1 106.4 49.8 C 106.5 50.4 106.4 51.1 106 51.8 C 105.7 52.3 105.3 52.8 104.6 53 C 103.9 53.1 103.3 53.1 102.7 52.8 Z"  transform="matrix(1,0,0,1,-153.2,-75.8)" stroke-width="1.1334816817207454"></path>
                <path class="text_color" d="M 104.3 46.6 C 103.5 46.2 102.8 45.7 102.5 45.3 C 102 44.9 101.8 44.4 101.8 43.9 C 101.7 43.4 101.8 42.9 102.2 42.4 C 102.4 42.1 102.6 41.8 102.9 41.6 C 103.3 41.3 103.6 41.2 103.9 41.2 C 104.3 41.2 104.7 41.2 105.1 41.3 C 105.6 41.5 106.1 41.8 106.8 42.1 C 107.6 42.6 108.2 43 108.6 43.4 C 109 43.9 109.2 44.3 109.2 44.9 C 109.3 45.3 109.2 45.8 108.9 46.3 C 108.6 46.9 108 47.3 107.2 47.4 C 106.6 47.6 105.5 47.4 104.3 46.6 Z M 104.7 45.7 C 105.8 46.4 106.7 46.7 107.1 46.6 C 107.7 46.6 108 46.4 108.2 46 C 108.5 45.5 108.5 45.2 108.2 44.6 C 108 44.1 107.3 43.6 106.2 43 C 105.1 42.3 104.3 42 103.8 42.1 C 103.4 42.2 102.9 42.3 102.7 42.8 C 102.5 43.1 102.5 43.5 102.7 44 C 102.9 44.5 103.6 45.1 104.7 45.7 Z"  transform="matrix(1,0,0,1,-153.2,-75.8)" stroke-width="1.1334816817207454"></path>
                <path class="text_color" d="M 106.8 103 L 107.6 102.5 L 110.2 107 C 110 107.1 109.8 107.3 109.6 107.3 C 109.2 107.4 108.8 107.3 108.3 107.3 C 107.9 107.3 107.3 107 106.7 106.7 C 105.7 106.3 104.9 106.1 104.4 106.1 C 103.8 105.9 103.5 106.1 103.2 106.3 C 102.8 106.5 102.6 106.7 102.5 107.1 C 102.4 107.5 102.5 107.9 102.7 108.2 C 102.9 108.7 103.3 108.9 103.6 109 C 103.9 109.1 104.4 109 104.8 108.8 L 105.3 109.7 C 104.6 110 103.9 110 103.4 109.9 C 102.8 109.7 102.4 109.2 101.9 108.7 C 101.6 108 101.4 107.4 101.6 106.8 C 101.7 106.3 102 105.8 102.6 105.5 C 102.8 105.4 103.2 105.3 103.5 105.2 C 103.8 105.1 104.1 105.2 104.6 105.3 C 105 105.4 105.7 105.6 106.6 105.8 C 107.2 106.1 107.8 106.3 108 106.3 C 108.2 106.4 108.5 106.4 108.7 106.4 L 106.8 103 Z"  transform="matrix(1,0,0,1,-153.2,-75.8)" stroke-width="1.1334816817207454"></path>
                <path class="text_color" d="M 105.6 99 L 103.9 100 L 105.7 103 L 104.9 103.3 L 98.6 102.8 L 98.2 102.1 L 102.6 99.6 L 102 98.7 L 102.8 98.3 L 103.4 99.1 L 105 98.2 L 105.6 99 Z M 103.2 100.3 L 100.1 102.1 L 104.4 102.4 L 103.2 100.3 Z"  transform="matrix(1,0,0,1,-153.2,-75.8)" stroke-width="1.1334816817207454"></path>
                <path class="text_color" d="M 127 122.6 L 127.4 121.8 L 132 124.5 C 131.9 124.7 131.8 124.8 131.5 125 C 131.2 125.2 130.9 125.5 130.4 125.6 C 130 125.7 129.4 125.9 128.8 126 C 127.7 126.2 126.9 126.3 126.5 126.6 C 126 126.8 125.7 127 125.5 127.3 C 125.2 127.7 125.2 128 125.4 128.4 C 125.5 128.8 125.7 129.1 126.1 129.3 C 126.6 129.5 126.9 129.6 127.3 129.5 C 127.7 129.4 128 129.2 128.3 128.8 L 129.1 129.3 C 128.7 130 128.2 130.3 127.6 130.4 C 127 130.5 126.3 130.4 125.7 130 C 125 129.6 124.6 129.1 124.5 128.5 C 124.2 128 124.4 127.4 124.7 126.9 C 124.8 126.7 125 126.3 125.4 126.2 C 125.7 126.1 126 125.9 126.3 125.7 C 126.8 125.6 127.4 125.4 128.3 125.2 C 129.1 125.1 129.5 125 129.8 124.9 C 130 124.8 130.2 124.8 130.4 124.7 L 127 122.6 Z"  transform="matrix(1,0,0,1,-153.2,-75.8)" stroke-width="1.1334816817207454"></path>
                <path class="text_color" d="M 123.4 119.4 L 124.2 119.9 L 121.2 125.2 C 121.5 125.1 121.8 125.1 122.3 125.1 C 122.7 125.1 123 125.1 123.4 125.2 L 122.9 126 C 122.4 126 121.7 126 121.3 126.1 C 120.7 126.2 120.3 126.3 119.9 126.6 L 119.4 126.2 L 123.4 119.4 Z"  transform="matrix(1,0,0,1,-153.2,-75.8)" stroke-width="1.1334816817207454"></path>
                <path class="text_color" d="M 182.2 120.5 L 183.1 120.1 L 186.2 125.5 C 186.3 125.1 186.4 124.8 186.6 124.5 C 186.9 124.1 187.1 123.8 187.3 123.5 L 187.8 124.3 C 187.4 124.7 187.2 125.2 187 125.8 C 186.8 126.3 186.8 126.8 186.8 127.1 L 186.2 127.4 L 182.2 120.5 Z"  transform="matrix(1,0,0,1,-153.2,-75.8)" stroke-width="1.1334816817207454"></path>
                <path class="text_color" d="M 181.1 123.5 L 180.2 124 C 179.9 123.6 179.6 123.4 179.2 123.4 C 178.9 123.3 178.6 123.4 178.3 123.6 C 177.8 123.8 177.6 124.1 177.5 124.7 C 177.4 125.2 177.5 125.7 177.8 126.1 C 178.1 126.6 178.5 126.9 178.9 127 C 179.4 127.1 179.8 127.1 180.2 126.8 C 180.5 126.7 180.7 126.5 180.9 126.1 C 181 125.9 181.1 125.6 181.1 125.4 L 182 125 L 183.3 128.9 L 179.9 130.8 L 179.5 130.1 L 182.2 128.5 L 181.6 126.5 C 181.3 127 181 127.3 180.6 127.7 C 180 128 179.4 128.1 178.7 127.9 C 178 127.7 177.5 127.3 177.1 126.7 C 176.8 126 176.7 125.5 176.8 124.8 C 176.9 124 177.4 123.4 178.1 122.9 C 178.8 122.6 179.4 122.5 180 122.6 C 180.2 122.6 180.7 122.9 181.1 123.5 Z"  transform="matrix(1,0,0,1,-153.2,-75.8)" stroke-width="1.1334816817207454"></path>
                <path class="text_color" d="M 201.1 100.3 L 201.6 99.5 L 206.9 102.5 C 206.7 102.2 206.7 101.9 206.7 101.4 C 206.7 101 206.7 100.7 206.9 100.3 L 207.6 100.8 C 207.6 101.3 207.6 102 207.7 102.4 C 207.9 103 208 103.4 208.2 103.7 L 207.9 104.3 L 201.1 100.3 Z"  transform="matrix(1,0,0,1,-153.2,-75.8)" stroke-width="1.1334816817207454"></path>
                <path class="text_color" d="M 198 107.3 L 197.2 106.8 L 199.9 102.3 C 200.1 102.4 200.2 102.5 200.5 102.8 C 200.7 103.1 200.9 103.4 201 103.9 C 201.1 104.3 201.3 104.8 201.4 105.5 C 201.7 106.6 201.8 107.4 202 107.8 C 202.2 108.2 202.4 108.6 202.8 108.8 C 203.1 109 203.4 109 203.9 108.9 C 204.3 108.8 204.5 108.6 204.8 108.1 C 205 107.7 205.1 107.4 205 106.9 C 204.9 106.6 204.6 106.3 204.2 105.9 L 204.8 105.2 C 205.4 105.6 205.8 106.1 205.9 106.7 C 206 107.3 205.9 107.9 205.4 108.6 C 205.1 109.2 204.5 109.7 204 109.8 C 203.4 109.9 202.9 109.9 202.3 109.6 C 202.1 109.5 201.8 109.2 201.7 108.9 C 201.4 108.7 201.3 108.2 201.1 107.9 C 201 107.5 200.8 106.8 200.7 105.9 C 200.6 105.2 200.5 104.7 200.3 104.5 C 200.2 104.3 200.2 104.1 200.1 103.9 L 198 107.3 Z"  transform="matrix(1,0,0,1,-153.2,-75.8)" stroke-width="1.1334816817207454"></path>
                <path class="text_color" d="M 206.4 48 L 205.9 47.3 C 206.2 47 206.3 46.7 206.4 46.5 C 206.5 46.2 206.5 45.8 206.3 45.5 C 206.2 45.3 206 45.1 205.6 45 C 205.3 44.9 204.9 44.7 204.4 44.9 C 204 45 203.4 45.2 202.7 45.5 C 203.1 45.5 203.4 45.6 203.8 45.8 C 204.1 46.1 204.3 46.3 204.5 46.6 C 204.9 47.2 205 47.7 204.8 48.4 C 204.5 49 204.2 49.5 203.5 49.9 C 203.1 50.1 202.7 50.2 202.2 50.3 C 201.8 50.3 201.3 50.2 200.9 50.1 C 200.6 49.9 200.2 49.6 200 49.2 C 199.6 48.6 199.6 47.8 199.8 47 C 200 46.3 200.8 45.6 202 45 C 203.3 44.2 204.4 43.9 205.3 44.1 C 206.1 44.2 206.6 44.6 207.1 45.4 C 207.4 46 207.5 46.5 207.4 46.9 C 207.2 47.3 207 47.7 206.4 48 Z M 201.4 46.3 C 201.1 46.5 200.9 46.7 200.7 46.9 C 200.5 47.3 200.3 47.5 200.3 47.8 C 200.3 48.1 200.3 48.4 200.6 48.6 C 200.8 48.9 201.1 49.1 201.6 49.2 C 202 49.4 202.4 49.2 203 48.9 C 203.4 48.7 203.8 48.3 203.9 47.9 C 204 47.5 204 47.2 203.8 46.7 C 203.5 46.4 203.2 46.1 202.8 46 C 202.3 46 201.9 46.1 201.4 46.3 Z"  transform="matrix(1,0,0,1,-153.2,-75.8)" stroke-width="1.1334816817207454"></path>
                <path class="text_color" d="M 179.2 26.3 L 180.1 26.7 C 179.9 27.2 179.9 27.6 180 28 C 180.1 28.3 180.4 28.6 180.7 28.7 C 181.1 29 181.5 29.1 181.9 29 C 182.3 28.8 182.7 28.6 182.9 28.2 C 183.1 27.9 183.2 27.4 183.1 27 C 183 26.5 182.8 26.3 182.3 26.1 C 182.2 26 182 25.9 181.7 25.9 L 182.2 25.2 C 182.2 25.2 182.3 25.3 182.3 25.3 C 182.7 25.6 183.1 25.7 183.4 25.7 C 183.8 25.7 184.1 25.4 184.3 25 C 184.5 24.7 184.5 24.3 184.4 24 C 184.3 23.7 184.1 23.5 183.8 23.3 C 183.4 23 183.1 23 182.8 23.1 C 182.4 23.3 182.1 23.5 181.8 23.8 L 181 23.1 C 181.5 22.6 181.9 22.4 182.4 22.3 C 183 22.2 183.6 22.3 184.1 22.6 C 184.4 22.8 184.8 23 185 23.5 C 185.2 23.8 185.3 24.1 185.3 24.6 C 185.3 24.9 185.2 25.2 185.1 25.6 C 184.9 25.9 184.7 26.1 184.4 26.2 C 184.1 26.3 183.8 26.4 183.4 26.4 C 183.8 26.8 184 27.1 184.1 27.5 C 184.1 28 184.1 28.4 183.8 28.8 C 183.4 29.4 182.9 29.8 182.2 29.9 C 181.6 30 180.9 29.9 180.2 29.6 C 179.7 29.3 179.2 28.8 179 28.2 C 178.9 27.5 178.9 27 179.2 26.3 Z"  transform="matrix(1,0,0,1,-153.2,-75.8)" stroke-width="1.1334816817207454"></path>
            </g>

            <line id="crossWindArrow" class="crossWindArrow arrows" x1="0" y1="-38" x2="0" y2="38" transform="matrix(1 0 0 1 70 70)" marker-start="url(#IDI_51)"></line>
            <line id="headWindArrow" class="headWindArrow arrows" x1="-0" y1="-38" x2="0" y2="38" transform="matrix(1 0 0 1 70 70)" marker-start="url(#IDI_121587)"></line>
            <line id="windArrow" class="windArrow arrows" x1="0" y1="-42.5" x2="0" y2="-30" transform="matrix(1 0 0 1 70 70)" marker-end="url(#IDI_14)"></line>
            <line id="meanWindArrow" class="meanWindArrow arrows" x1="0" y1="-42.5" x2="0" y2="-25" transform="matrix(1 0 0 1 70 70)" marker-end="url(#IDI_13)"></line>
        </g>
    </g>
</svg>