<svg xmlns="http://www.w3.org/2000/svg" viewBox="72 0 135 135">
	<style type="text/css">
		.text_color{fill:#222;}
		.border_ring{stroke:#E6E6E6;stroke-width:0.5;fill:none;}
		.aircraft_symbol{fill:none;stroke:#F7CE31;stroke-width:2;}
		.arrow1_line{fill:none;stroke:#F7CE31;stroke-width:2;}
		.arrow1_head{fill:#F7CE31;}
		.red_markers{fill:none;stroke:#FF0000;}
		.dial_markers{fill:none;stroke:#222;}
		.north_marker{fill:#FF0000;}
	</style>
	<g id="dial">
		<circle class="border_ring" cx="139.2" cy="68.8" r="65.0"/>
		<line class="aircraft_symbol" x1="139.2" y1="62.1" x2="139.2" y2="84.1"/>
		<line class="aircraft_symbol" x1="129.2" y1="68.7" x2="149.2" y2="68.7"/>
		<line class="aircraft_symbol" x1="136.2" y1="80.7" x2="142.2" y2="80.7"/>
		<g id="arrow1">
			<line class="arrow1_line" x1="111.7" y1="52.5" x2="173.8" y2="89.1"/>
			<polygon class="arrow1_head" points="111.9,56 104.1,48 114.9,51"/>
		</g>
		<g id="red_markers">
			<line class="red_markers" x1="101.6" y1="31.3" x2="98.8" y2="28.4"/>
			<line class="red_markers" x1="86" y1="68.8" x2="82" y2="68.8"/>
			<line class="red_markers" x1="101.6" y1="106.4" x2="98.8" y2="109.2"/>
			<line class="red_markers" x1="139.2" y1="122" x2="139.2" y2="126"/>
			<line class="red_markers" x1="176.7" y1="106.4" x2="179.6" y2="109.2"/>
			<line class="red_markers" x1="192.3" y1="68.8" x2="196.3" y2="68.8"/>
			<line class="red_markers" x1="176.7" y1="31.3" x2="179.6" y2="28.4"/>
		</g>
		<g id="dial_markers">
			<line class="red_markers" x1="139.2" y1="20" x2="139.2" y2="26"/>
			<line class="dial_markers" x1="135.2" y1="23.2" x2="135.4" y2="26.2"/>
			<line class="dial_markers" x1="127.3" y1="24.6" x2="128.1" y2="27.5"/>
			<line class="dial_markers" x1="119.8" y1="27.3" x2="121.1" y2="30"/>
			<line class="dial_markers" x1="112.9" y1="31.3" x2="114.6" y2="33.7"/>
			<line class="dial_markers" x1="106.8" y1="36.4" x2="108.9" y2="38.5"/>
			<line class="dial_markers" x1="101.6" y1="42.5" x2="104.1" y2="44.3"/>
			<line class="dial_markers" x1="97.6" y1="49.5" x2="100.3" y2="50.7"/>
			<line class="dial_markers" x1="94.9" y1="57" x2="97.8" y2="57.7"/>
			<line class="dial_markers" x1="93.5" y1="64.8" x2="96.5" y2="65.1"/>
			<line class="dial_markers" x1="93.5" y1="72.8" x2="96.5" y2="72.6"/>
			<line class="dial_markers" x1="94.9" y1="80.7" x2="97.8" y2="79.9"/>
			<line class="dial_markers" x1="97.6" y1="88.2" x2="100.3" y2="86.9"/>
			<line class="dial_markers" x1="101.6" y1="95.1" x2="104.1" y2="93.4"/>
			<line class="dial_markers" x1="106.8" y1="101.2" x2="108.9" y2="99.1"/>
			<line class="dial_markers" x1="112.9" y1="106.4" x2="114.6" y2="103.9"/>
			<line class="dial_markers" x1="119.8" y1="110.4" x2="121.1" y2="107.7"/>
			<line class="dial_markers" x1="127.3" y1="113.1" x2="128.1" y2="110.2"/>
			<line class="dial_markers" x1="135.2" y1="114.5" x2="135.4" y2="111.5"/>
			<line class="dial_markers" x1="143.2" y1="114.5" x2="142.9" y2="111.5"/>
			<line class="dial_markers" x1="151" y1="113.1" x2="150.3" y2="110.2"/>
			<line class="dial_markers" x1="158.5" y1="110.4" x2="157.3" y2="107.7"/>
			<line class="dial_markers" x1="165.5" y1="106.4" x2="163.7" y2="103.9"/>
			<line class="dial_markers" x1="171.6" y1="101.2" x2="169.5" y2="99.1"/>
			<line class="dial_markers" x1="176.7" y1="95.1" x2="174.3" y2="93.4"/>
			<line class="dial_markers" x1="180.7" y1="88.2" x2="178" y2="86.9"/>
			<line class="dial_markers" x1="183.4" y1="80.7" x2="180.5" y2="79.9"/>
			<line class="dial_markers" x1="184.8" y1="72.8" x2="181.8" y2="72.6"/>
			<line class="dial_markers" x1="184.8" y1="64.8" x2="181.8" y2="65.1"/>
			<line class="dial_markers" x1="183.4" y1="57" x2="180.5" y2="57.7"/>
			<line class="dial_markers" x1="180.7" y1="49.5" x2="178" y2="50.7"/>
			<line class="dial_markers" x1="176.7" y1="42.5" x2="174.3" y2="44.3"/>
			<line class="dial_markers" x1="171.6" y1="36.4" x2="169.5" y2="38.5"/>
			<line class="dial_markers" x1="165.5" y1="31.3" x2="163.7" y2="33.7"/>
			<line class="dial_markers" x1="158.5" y1="27.3" x2="157.3" y2="30"/>
			<line class="dial_markers" x1="151" y1="24.6" x2="150.3" y2="27.5"/>
			<line class="dial_markers" x1="143.2" y1="23.2" x2="142.9" y2="26.2"/>
			<line class="dial_markers" x1="130.7" y1="20.7" x2="131.7" y2="26.7"/>
			<line class="dial_markers" x1="122.5" y1="22.9" x2="124.5" y2="28.6"/>
			<line class="dial_markers" x1="114.7" y1="26.5" x2="117.7" y2="31.7"/>
			<line class="dial_markers" x1="107.8" y1="31.4" x2="111.6" y2="36"/>
			<line class="dial_markers" x1="101.8" y1="37.4" x2="106.4" y2="41.3"/>
			<line class="dial_markers" x1="96.9" y1="44.4" x2="102.1" y2="47.4"/>
			<line class="dial_markers" x1="93.3" y1="52.1" x2="98.9" y2="54.2"/>
			<line class="dial_markers" x1="91.1" y1="60.4" x2="97" y2="61.4"/>
			<line class="dial_markers" x1="90.3" y1="68.8" x2="96.3" y2="68.8"/>
			<line class="dial_markers" x1="91.1" y1="77.3" x2="97" y2="76.3"/>
			<line class="dial_markers" x1="93.3" y1="85.5" x2="98.9" y2="83.5"/>
			<line class="dial_markers" x1="96.9" y1="93.3" x2="102.1" y2="90.3"/>
			<line class="dial_markers" x1="101.8" y1="100.2" x2="106.4" y2="96.4"/>
			<line class="dial_markers" x1="107.8" y1="106.2" x2="111.6" y2="101.6"/>
			<line class="dial_markers" x1="114.8" y1="111.1" x2="117.8" y2="105.9"/>
			<line class="dial_markers" x1="122.5" y1="114.7" x2="124.5" y2="109.1"/>
			<line class="dial_markers" x1="130.7" y1="116.9" x2="131.7" y2="111"/>
			<line class="dial_markers" x1="139.2" y1="117.7" x2="139.2" y2="111.7"/>
			<line class="dial_markers" x1="147.6" y1="116.9" x2="146.6" y2="111"/>
			<line class="dial_markers" x1="155.9" y1="114.7" x2="153.8" y2="109.1"/>
			<line class="dial_markers" x1="163.6" y1="111.1" x2="160.6" y2="105.9"/>
			<line class="dial_markers" x1="170.6" y1="106.2" x2="166.7" y2="101.6"/>
			<line class="dial_markers" x1="176.6" y1="100.2" x2="172" y2="96.4"/>
			<line class="dial_markers" x1="181.5" y1="93.2" x2="176.3" y2="90.2"/>
			<line class="dial_markers" x1="185.1" y1="85.5" x2="179.4" y2="83.5"/>
			<line class="dial_markers" x1="187.3" y1="77.3" x2="181.3" y2="76.3"/>
			<line class="dial_markers" x1="188" y1="68.8" x2="182" y2="68.8"/>
			<line class="dial_markers" x1="187.3" y1="60.4" x2="181.3" y2="61.4"/>
			<line class="dial_markers" x1="185.1" y1="52.1" x2="179.4" y2="54.2"/>
			<line class="dial_markers" x1="181.5" y1="44.4" x2="176.3" y2="47.4"/>
			<line class="dial_markers" x1="176.6" y1="37.4" x2="172" y2="41.3"/>
			<line class="dial_markers" x1="170.6" y1="31.4" x2="166.7" y2="36"/>
			<line class="dial_markers" x1="163.6" y1="26.5" x2="160.6" y2="31.7"/>
			<line class="dial_markers" x1="155.9" y1="22.9" x2="153.8" y2="28.6"/>
			<line class="dial_markers" x1="147.6" y1="20.7" x2="146.6" y2="26.7"/>
		</g>
		<polygon class="north_marker" points="141.6,10.2 139.2,14.4 136.8,10.2  "/>
	</g>
	<g id="txt_copy">
		<path class="text_color" d="M136.8,21.7v-8.1h1.4l1.2,3.2c0.3,0.6,0.6,1.7,0.9,2.4h0c0-0.9-0.2-2.3-0.2-3.7v-1.8h1.4v8.1h-1.4l-1.2-3.1    c-0.3-0.7-0.6-1.7-0.8-2.4h0c0,0.8,0.1,2.1,0.1,3.7v1.8H136.8z"/>
		<path class="text_color" d="M92,71.4l-8.1,1.4v-1.6l3.2-0.4c0.9-0.1,1.8-0.2,2.8-0.3v0c-1-0.1-1.9-0.3-2.8-0.5l-3.2-0.6v-1.3l3.2-0.5    c0.9-0.1,1.8-0.3,2.9-0.4v0c-1.1-0.1-1.9-0.2-2.9-0.3l-3.2-0.4v-1.5l8.1,1.4V68l-2.7,0.5c-0.7,0.1-1.7,0.3-2.7,0.4v0    c1,0.1,1.9,0.3,2.7,0.4l2.6,0.5V71.4z"/>
		<path class="text_color" d="M141,117.6c-0.3-0.2-0.9-0.3-1.3-0.3c-0.7,0-1.1,0.4-1.1,0.9c0,0.6,0.4,0.9,1,1.3c1.1,0.7,1.5,1.5,1.5,2.3    c0,1.3-0.9,2.4-2.5,2.4c-0.5,0-1-0.1-1.3-0.3l0.3-1.4c0.2,0.1,0.6,0.3,1,0.3c0.7,0,1-0.4,1-0.8c0-0.5-0.2-0.7-1.1-1.3    c-1.1-0.6-1.5-1.5-1.5-2.3c0-1.5,1.1-2.4,2.7-2.4c0.6,0,1.3,0.2,1.5,0.3L141,117.6z"/>
		<path class="text_color" d="M189.9,70.6v-1.8h-2.2v2.1h-1.4v-3.6h8.1v3.5H193v-1.9h-1.9v1.8H189.9z"/>
	</g>
	<g id="outlines_1_">
		<path class="text_color" d="M109.5,27.8l0.7-0.5c0.3,0.4,0.7,0.6,1,0.7c0.3,0.1,0.6,0,0.9-0.2c0.4-0.2,0.6-0.5,0.7-0.9s0-0.8-0.2-1.1    c-0.2-0.3-0.5-0.6-0.8-0.7c-0.4-0.1-0.7,0-1.1,0.2c-0.1,0.1-0.3,0.2-0.5,0.4l-0.3-0.7c0.1,0,0.1,0,0.1-0.1    c0.3-0.2,0.6-0.4,0.7-0.8c0.2-0.3,0.1-0.7-0.1-1c-0.2-0.3-0.4-0.5-0.7-0.5c-0.3-0.1-0.6,0-0.9,0.1c-0.3,0.2-0.5,0.4-0.6,0.7    c-0.1,0.3-0.1,0.7,0.1,1.1l-0.8,0.3c-0.2-0.6-0.2-1.1,0-1.6s0.5-0.8,1-1.1c0.3-0.2,0.7-0.3,1.1-0.3c0.4,0,0.7,0.1,1,0.2    s0.5,0.4,0.7,0.7c0.2,0.3,0.2,0.6,0.2,0.9s-0.1,0.6-0.3,0.9c0.4-0.1,0.8-0.1,1.2,0c0.4,0.1,0.7,0.4,0.9,0.8    c0.3,0.5,0.4,1.1,0.2,1.7c-0.2,0.6-0.6,1.1-1.2,1.4c-0.5,0.3-1.1,0.4-1.6,0.3C110.3,28.6,109.9,28.3,109.5,27.8z"/>
		<path class="text_color" d="M114.4,25l0.7-0.5c0.3,0.4,0.7,0.6,1,0.7c0.3,0.1,0.6,0,0.9-0.2c0.4-0.2,0.6-0.5,0.7-0.9    c0.1-0.4,0-0.8-0.2-1.1c-0.2-0.3-0.5-0.6-0.8-0.7c-0.4-0.1-0.7,0-1.1,0.2c-0.1,0.1-0.3,0.2-0.5,0.4l-0.3-0.7c0.1,0,0.1,0,0.1-0.1    c0.3-0.2,0.6-0.4,0.7-0.8c0.2-0.3,0.1-0.7-0.1-1c-0.2-0.3-0.4-0.5-0.7-0.5c-0.3-0.1-0.6,0-0.9,0.1c-0.3,0.2-0.5,0.4-0.6,0.7    c-0.1,0.3-0.1,0.7,0.1,1.1l-0.8,0.3c-0.2-0.6-0.2-1.1,0-1.6s0.5-0.8,1-1.1c0.3-0.2,0.7-0.3,1.1-0.3c0.4,0,0.7,0.1,1,0.2    c0.3,0.2,0.5,0.4,0.7,0.7c0.2,0.3,0.2,0.6,0.2,0.9c0,0.3-0.1,0.6-0.3,0.9c0.4-0.1,0.8-0.1,1.2,0s0.7,0.4,0.9,0.8    c0.3,0.5,0.4,1.1,0.2,1.7c-0.2,0.6-0.6,1.1-1.2,1.4c-0.5,0.3-1.1,0.4-1.6,0.3C115.2,25.8,114.7,25.5,114.4,25z"/>
		<path class="text_color" d="M93,48.1l0.3-0.8c0.5,0.2,0.9,0.2,1.2,0.1s0.6-0.3,0.7-0.6c0.2-0.4,0.3-0.7,0.2-1.1c-0.1-0.4-0.3-0.7-0.7-0.9    c-0.3-0.2-0.7-0.3-1.1-0.2c-0.4,0.1-0.6,0.3-0.8,0.7c-0.1,0.1-0.2,0.3-0.2,0.6l-0.6-0.5c0,0,0.1-0.1,0.1-0.1    c0.2-0.3,0.3-0.7,0.3-1s-0.2-0.6-0.6-0.8c-0.3-0.2-0.6-0.2-0.9-0.1s-0.5,0.3-0.7,0.6c-0.2,0.3-0.2,0.6-0.1,0.9    c0.1,0.3,0.3,0.6,0.6,0.9l-0.6,0.7c-0.5-0.4-0.7-0.8-0.8-1.3c-0.1-0.5,0-1,0.3-1.5c0.2-0.3,0.4-0.6,0.8-0.8c0.3-0.2,0.6-0.3,1-0.3    c0.3,0,0.6,0.1,0.9,0.2c0.3,0.2,0.5,0.4,0.6,0.6c0.1,0.3,0.2,0.6,0.2,0.9c0.3-0.3,0.6-0.5,1-0.6c0.4,0,0.8,0,1.2,0.3    c0.5,0.3,0.9,0.8,1,1.4c0.1,0.6,0,1.2-0.3,1.8c-0.3,0.5-0.7,0.9-1.3,1.1C94.1,48.4,93.5,48.4,93,48.1z"/>
		<path class="text_color" d="M94.4,42.5c-0.7-0.4-1.3-0.8-1.6-1.2c-0.4-0.4-0.6-0.8-0.6-1.3c-0.1-0.4,0-0.9,0.3-1.3    c0.2-0.3,0.4-0.6,0.7-0.8c0.3-0.2,0.6-0.3,0.9-0.3c0.3,0,0.7,0,1.1,0.1c0.4,0.1,0.9,0.4,1.5,0.7c0.7,0.4,1.3,0.8,1.6,1.2    c0.4,0.4,0.6,0.8,0.6,1.3c0.1,0.4,0,0.9-0.3,1.3c-0.3,0.6-0.8,0.9-1.5,1C96.5,43.4,95.5,43.2,94.4,42.5z M94.8,41.7    c1,0.6,1.8,0.9,2.2,0.8c0.5,0,0.8-0.2,1-0.6c0.2-0.4,0.2-0.7,0-1.2s-0.8-0.9-1.8-1.5c-1-0.6-1.8-0.9-2.2-0.8s-0.8,0.2-1,0.6    c-0.2,0.3-0.2,0.7,0,1.1C93.2,40.6,93.8,41.1,94.8,41.7z"/>
		<path class="text_color" d="M96.7,93.9l0.7-0.4l2.4,4.1c-0.2,0.1-0.4,0.2-0.6,0.2c-0.3,0.1-0.7,0-1.1,0s-0.9-0.2-1.5-0.5    c-0.9-0.4-1.6-0.6-2.1-0.6c-0.5-0.1-0.8,0-1.1,0.2c-0.3,0.2-0.5,0.4-0.6,0.8c-0.1,0.3,0,0.7,0.2,1c0.2,0.4,0.5,0.6,0.8,0.7    c0.3,0.1,0.7,0,1.1-0.2l0.4,0.8c-0.6,0.3-1.2,0.3-1.7,0.2c-0.5-0.2-0.9-0.6-1.3-1.1c-0.3-0.6-0.5-1.2-0.3-1.7    c0.1-0.5,0.4-0.9,0.9-1.2c0.2-0.1,0.5-0.2,0.8-0.3s0.6,0,1,0.1c0.4,0.1,1,0.3,1.8,0.5c0.6,0.2,1.1,0.4,1.3,0.4    c0.2,0.1,0.4,0.1,0.6,0.1L96.7,93.9z"/>
		<path class="text_color" d="M95.6,90.3l-1.5,0.9l1.6,2.7L95,94.2l-5.7-0.5l-0.4-0.6l4-2.3l-0.5-0.8l0.7-0.4l0.5,0.8l1.5-0.9L95.6,90.3z     M93.4,91.5l-2.8,1.6l3.9,0.3L93.4,91.5z"/>
		<path class="text_color" d="M115,111.8l0.4-0.7l4.1,2.4c-0.1,0.2-0.2,0.3-0.4,0.5c-0.3,0.2-0.6,0.4-1,0.5c-0.4,0.1-0.9,0.3-1.5,0.4    c-1,0.2-1.7,0.3-2.1,0.5c-0.4,0.2-0.7,0.4-0.9,0.7c-0.2,0.3-0.2,0.6-0.1,1c0.1,0.3,0.3,0.6,0.7,0.8c0.4,0.2,0.7,0.3,1.1,0.2    c0.3-0.1,0.6-0.3,0.9-0.7l0.7,0.5c-0.4,0.6-0.8,0.9-1.4,1c-0.5,0.1-1.1,0-1.7-0.4c-0.6-0.3-1-0.8-1.1-1.3c-0.2-0.5-0.1-1,0.2-1.5    c0.1-0.2,0.3-0.5,0.6-0.6s0.6-0.3,0.9-0.5c0.4-0.1,1-0.3,1.8-0.4c0.7-0.1,1.1-0.2,1.3-0.3c0.2-0.1,0.4-0.1,0.6-0.2L115,111.8z"/>
		<path class="text_color" d="M111.7,108.9l0.8,0.4l-2.8,4.9c0.3-0.1,0.6-0.1,1-0.1s0.7,0,1,0.1l-0.4,0.7c-0.5,0-1.1,0-1.5,0.1    c-0.5,0.1-0.9,0.2-1.2,0.4l-0.5-0.3L111.7,108.9z"/>
		<path class="text_color" d="M165,109.9l0.8-0.4l2.8,4.9c0.1-0.3,0.2-0.6,0.4-0.9c0.2-0.3,0.4-0.6,0.6-0.9l0.4,0.7    c-0.3,0.4-0.5,0.9-0.7,1.4s-0.2,0.9-0.2,1.2l-0.5,0.3L165,109.9z"/>
		<path class="text_color" d="M164,112.6l-0.8,0.5c-0.3-0.4-0.6-0.6-0.9-0.6c-0.3-0.1-0.6,0-0.9,0.2c-0.4,0.2-0.6,0.5-0.7,1s0,0.9,0.3,1.3    c0.3,0.4,0.6,0.7,1,0.8c0.4,0.1,0.8,0.1,1.2-0.2c0.2-0.1,0.4-0.3,0.6-0.6c0.1-0.2,0.2-0.5,0.2-0.7l0.8-0.3l1.2,3.5l-3.1,1.8    l-0.4-0.7l2.5-1.4l-0.6-1.9c-0.2,0.5-0.5,0.8-0.9,1.1c-0.5,0.3-1.1,0.4-1.7,0.2c-0.6-0.2-1.1-0.5-1.4-1.1    c-0.3-0.6-0.4-1.1-0.3-1.7c0.1-0.7,0.5-1.3,1.2-1.7c0.6-0.3,1.1-0.4,1.7-0.3C163.2,111.8,163.6,112.1,164,112.6z"/>
		<path class="text_color" d="M182.1,91.5l0.4-0.8l4.8,2.8c-0.1-0.3-0.1-0.6-0.1-1c0-0.4,0-0.7,0.1-1l0.7,0.4c0,0.5,0,1.1,0.1,1.5    c0.1,0.5,0.2,0.9,0.4,1.2l-0.3,0.5L182.1,91.5z"/>
		<path class="text_color" d="M179.3,97.8l-0.7-0.4l2.4-4.1c0.2,0.1,0.3,0.2,0.5,0.4c0.2,0.3,0.4,0.6,0.5,1c0.1,0.4,0.3,0.9,0.4,1.5    c0.2,1,0.3,1.7,0.5,2.1c0.2,0.4,0.4,0.7,0.7,0.9c0.3,0.2,0.6,0.2,1,0.1s0.6-0.3,0.8-0.7c0.2-0.4,0.3-0.7,0.2-1.1    c-0.1-0.3-0.3-0.6-0.7-0.9l0.5-0.7c0.6,0.4,0.9,0.8,1,1.4c0.1,0.5,0,1.1-0.4,1.7c-0.3,0.6-0.8,1-1.3,1.1s-1,0.1-1.5-0.2    c-0.2-0.1-0.5-0.3-0.6-0.6c-0.2-0.2-0.3-0.6-0.5-0.9c-0.1-0.4-0.3-1-0.4-1.8c-0.1-0.7-0.2-1.1-0.3-1.3c-0.1-0.2-0.1-0.4-0.2-0.6    L179.3,97.8z"/>
		<path class="text_color" d="M186.9,43.8l-0.5-0.7c0.3-0.2,0.4-0.5,0.5-0.7c0.1-0.3,0.1-0.6-0.1-0.9c-0.1-0.2-0.3-0.4-0.6-0.5    c-0.3-0.1-0.7-0.2-1.1-0.1c-0.4,0.1-0.9,0.3-1.6,0.6c0.4,0,0.7,0.1,1,0.3s0.5,0.4,0.7,0.7c0.3,0.5,0.4,1,0.2,1.6    c-0.2,0.6-0.5,1-1.1,1.4c-0.4,0.2-0.8,0.3-1.2,0.4c-0.4,0-0.8-0.1-1.2-0.2c-0.3-0.2-0.6-0.5-0.8-0.8c-0.4-0.6-0.4-1.3-0.2-2    c0.2-0.7,0.9-1.3,2-1.9c1.2-0.7,2.2-1,3-0.8c0.7,0.1,1.2,0.5,1.6,1.2c0.3,0.5,0.4,1,0.3,1.4C187.6,43.1,187.4,43.5,186.9,43.8z     M182.4,42.2c-0.3,0.2-0.5,0.4-0.7,0.6c-0.2,0.3-0.3,0.5-0.3,0.8c0,0.3,0,0.5,0.2,0.7c0.2,0.3,0.5,0.5,0.9,0.6    c0.4,0.1,0.8,0,1.3-0.3c0.4-0.2,0.7-0.6,0.8-0.9c0.1-0.4,0.1-0.7-0.1-1.1c-0.2-0.3-0.5-0.6-0.9-0.7    C183.2,41.9,182.8,42,182.4,42.2z"/>
		<path class="text_color" d="M162.3,24l0.8,0.3c-0.2,0.5-0.2,0.9-0.1,1.2c0.1,0.3,0.3,0.6,0.6,0.7c0.4,0.2,0.7,0.3,1.1,0.2    c0.4-0.1,0.7-0.3,0.9-0.7c0.2-0.3,0.3-0.7,0.2-1.1c-0.1-0.4-0.3-0.6-0.7-0.8c-0.1-0.1-0.3-0.2-0.6-0.2L165,23c0,0,0.1,0.1,0.1,0.1    c0.3,0.2,0.7,0.3,1,0.3s0.6-0.2,0.8-0.6c0.2-0.3,0.2-0.6,0.1-0.9c-0.1-0.3-0.3-0.5-0.6-0.7c-0.3-0.2-0.6-0.2-0.9-0.1    c-0.3,0.1-0.6,0.3-0.9,0.6l-0.7-0.6c0.4-0.5,0.8-0.7,1.3-0.8s1,0,1.5,0.3c0.3,0.2,0.6,0.4,0.8,0.8c0.2,0.3,0.3,0.6,0.3,1    c0,0.3-0.1,0.6-0.2,0.9c-0.2,0.3-0.4,0.5-0.6,0.6c-0.3,0.1-0.6,0.2-0.9,0.2c0.3,0.3,0.5,0.6,0.6,1c0,0.4,0,0.8-0.3,1.2    c-0.3,0.5-0.8,0.9-1.4,1c-0.6,0.1-1.2,0-1.8-0.3c-0.5-0.3-0.9-0.7-1.1-1.3C162,25.1,162,24.6,162.3,24z"/>
	</g>
</svg>